<?xml version="1.0" encoding="utf-8"?>
<!-- Generator: Adobe Illustrator 23.0.5, SVG Export Plug-In . SVG Version: 6.00 Build 0)  -->
<svg version="1.1" id="Layer_1" focusable="true" xmlns="http://www.w3.org/2000/svg" xmlns:xlink="http://www.w3.org/1999/xlink"
	 x="0px" y="0px" viewBox="0 0 145 48" style="enable-background:new 0 0 145 48;" xml:space="preserve">
<title></title>
<g id="devices">
	<path id="Fill-7" d="M136.4,42.8c-0.4,0-0.7,0.3-0.7,0.7c0,0.4,0.3,0.7,0.7,0.7c0.4,0,0.7-0.3,0.7-0.7
		C137.1,43.2,136.7,42.8,136.4,42.8z M132.4,45.3h8.2V27.9h-8.2V45.3z M132.4,26.6h8.2c0.8,0,1.3,0.6,1.3,1.3v17.3
		c0,0.8-0.6,1.4-1.3,1.4h-8.2c-0.7,0-1.3-0.6-1.3-1.4V27.9C131.1,27.2,131.7,26.6,132.4,26.6z M76,42.8h45.9v-29H76
		C76,13.8,76,42.8,76,42.8z M76,12.5h45.9c0.7,0,1.3,0.6,1.3,1.4v29c0,0.8-0.6,1.3-1.3,1.3H76c-0.8,0-1.3-0.6-1.3-1.3v-29
		C74.7,13.1,75.2,12.5,76,12.5z M129.3,45.1v0.6c0,0.5-0.8,0.8-1.6,0.8H69.9c-0.9,0-1.6-0.4-1.6-0.8v-0.6H129.3z M24.2,46v-2.3
		c0-0.8,0.6-1.4,1.3-1.4h28c0.8,0,1.3,0.6,1.3,1.4V46h-1.3v-2.3H25.6V46H24.2L24.2,46z M7.5,40.1h64.2V2.7H7.5V40.1z M7.5,1.4h64.2
		c0.8,0,1.4,0.6,1.4,1.3v37.4c0,0.7-0.6,1.3-1.4,1.3H7.5c-0.7,0-1.3-0.6-1.3-1.3c0,0,0,0,0,0V2.7C6.2,2,6.8,1.4,7.5,1.4z"/>
</g>
</svg>
